<svg width="100" height="100" viewBox="0 0 100 100" fill="none" xmlns="http://www.w3.org/2000/svg">
<rect width="100" height="100" fill="white"/>
<path d="M51.7082 33.1915C50.7337 33.1915 49.901 33.8939 49.7368 34.8545L48.7184 40.8119C48.5096 42.0335 49.4506 43.1489 50.6899 43.1489H65.0728C66.3201 43.1489 67.2631 44.2782 67.0407 45.5055L65.4677 54.1864C65.2953 55.1379 64.4668 55.8298 63.4997 55.8298H47.6938C46.7256 55.8298 45.8965 56.5232 45.7253 57.4761L44.4866 64.3697C44.2662 65.5962 45.209 66.7234 46.4551 66.7234H63.3898C64.6307 66.7234 65.5721 67.8417 65.3605 69.0645L63.7549 78.3411C63.589 79.2998 62.7572 80 61.7842 80H27.3858C26.1415 80 25.1993 78.876 25.4165 77.6508L35.3455 21.6508C35.5148 20.6959 36.3449 20 37.3148 20H71.6424C72.8842 20 73.8258 21.1198 73.6127 22.3432L72.0116 31.5347C71.8448 32.4924 71.0135 33.1915 70.0413 33.1915H51.7082Z" fill="#019AFF"/>
</svg>
